<?xml version="1.0" standalone="no"?>
<!DOCTYPE svg PUBLIC "-//W3C//DTD SVG 20010904//EN"
 "http://www.w3.org/TR/2001/REC-SVG-20010904/DTD/svg10.dtd">
<svg version="1.0" xmlns="http://www.w3.org/2000/svg"
 width="700.000000pt" height="700.000000pt" viewBox="0 0 700.000000 700.000000"
 preserveAspectRatio="xMidYMid meet">
<metadata>
Created by potrace 1.14, written by Peter Selinger 2001-2017
</metadata>
<g transform="translate(0.000000,700.000000) scale(0.100000,-0.100000)"
fill="#000000" stroke="none">
<path d="M6445 6983 c-112 -32 -185 -54 -280 -82 -153 -46 -542 -161 -815
-240 -135 -40 -270 -84 -300 -98 -107 -52 -201 -176 -229 -301 -5 -26 -8 -848
-7 -2112 0 -1139 0 -2070 -2 -2070 -1 0 -35 9 -75 21 -105 30 -173 46 -252 58
-38 6 -88 13 -110 17 -83 12 -334 11 -455 -3 -295 -33 -562 -124 -785 -267
-84 -54 -101 -66 -174 -131 -281 -251 -391 -569 -307 -891 57 -219 227 -437
465 -592 168 -111 414 -213 598 -247 197 -36 193 -36 398 -39 197 -4 296 4
455 35 492 98 903 385 1050 735 72 173 68 32 69 2138 0 1040 0 1929 1 1976 l0
85 253 74 c138 41 302 89 362 106 61 18 175 52 255 75 80 23 169 54 199 69 91
44 169 130 216 241 18 42 20 77 22 565 2 566 1 578 -54 673 -57 97 -171 185
-269 208 -60 13 -179 12 -229 -3z"/>
<path d="M327 6108 c-205 -52 -341 -243 -323 -455 14 -168 119 -303 284 -366
l57 -22 1585 -2 c985 -2 1608 1 1645 7 216 35 374 227 360 439 -8 119 -45 201
-130 287 -59 60 -112 91 -199 116 -31 9 -426 12 -1625 13 -1487 1 -1588 0
-1654 -17z"/>
<path d="M327 4363 c-155 -32 -288 -173 -319 -341 -15 -80 0 -182 38 -260 53
-109 186 -214 305 -241 60 -14 3179 -14 3239 0 214 48 354 225 345 438 -8 188
-137 348 -325 402 -64 18 -3194 20 -3283 2z"/>
<path d="M340 2625 c-151 -40 -264 -145 -316 -294 -39 -110 -23 -250 38 -350
58 -94 143 -161 247 -196 66 -22 69 -23 780 -23 769 0 766 0 871 53 258 131
303 478 90 694 -33 34 -67 61 -75 61 -8 0 -15 4 -15 8 0 5 -30 19 -67 33 l-68
24 -720 1 c-525 0 -732 -3 -765 -11z"/>
</g>
</svg>
